# File created by Blade
# Date/Time:  Thu Jan 15 17:55:17 2015
#---------------------------------------------------------
:version 1.10
:name HOM
:units
  mass 1.0
  length 1.000000
  angle deg
:documentation
     Acclaim Skeleton File
:root
   axis xyz
   order TX TY TZ RX RY RZ
   position 0.000000 0.000000 0.000000
   orientation 0 0 0
:bonedata
   begin
      id 1
      name Spine_dum
      direction 0.000000 1.000000 0.000000
      length 5.015652
      axis 0.0 0.0 0.0 xyz
   end
   begin
      id 2
      name LeftUpLeg_dum
      direction 1.000000 0.000000 0.000000
      length 4.275145
      axis 0.0 0.0 0.0 xyz
   end
   begin
      id 3
      name RightUpLeg_dum
      direction -1.000000 0.000000 0.000000
      length 4.275145
      axis 0.0 0.0 0.0 xyz
   end
   begin
      id 4
      name Spine
      direction 0.000000 1.000000 0.000000
      length 0.000000
      axis 0.0 0.0 0.0 xyz
      dof rx ry rz
   end
   begin
      id 5
      name Spine_dum1
      direction 0.000000 1.000000 0.000000
      length 15.980521
      axis 0.0 0.0 0.0 xyz
   end
   begin
      id 6
      name Spine_dum2
      direction 0.000000 1.000000 0.000000
      length 12.162712
      axis 0.0 0.0 0.0 xyz
   end
   begin
      id 7
      name Spine_dum3
      direction 0.000000 1.000000 0.000000
      length 12.162712
      axis 0.0 0.0 0.0 xyz
   end
   begin
      id 8
      name Head
      direction 0.000000 1.000000 0.000000
      length 4.527550
      axis 0.0 0.0 0.0 xyz
      dof rx ry rz
   end
   begin
      id 9
      name LeftShoulder
      direction 1.000000 0.000000 0.000000
      length 7.205867
      axis 0.0 0.0 -90.0 xyz
      dof rx ry rz
   end
   begin
      id 10
      name LeftArm
      direction 1.000000 0.000000 0.000000
      length 10.786708
      axis 0.0 0.0 -90.0 xyz
      dof rx ry rz
   end
   begin
      id 11
      name LeftForeArm
      direction 1.000000 0.000000 0.000000
      length 7.946034
      axis 0.0 0.0 -90.0 xyz
      dof rz ry rx
   end
   begin
      id 12
      name LeftHand
      direction 0.000000 0.000000 0.000000
      length 0.000000
      axis 0.0 0.0 -90.0 xyz
      dof rx ry rz
   end
   begin
      id 13
      name LeftHand_dum1
      direction 0.000000 0.000000 0.000000
      length 0.000000
      axis 0.0 0.0 -90.0 xyz
   end
   begin
      id 14
      name LeftHand_dum2
      direction 1.000000 0.000000 0.000000
      length 3.937000
      axis 0.0 0.0 -90.0 xyz
   end
   begin
      id 15
      name LeftHandThumb1
      direction 0.000000 0.000000 1.000000
      length 3.937000
      axis 0.0 0.0 -90.0 xyz
      dof rx ry rz
   end
   begin
      id 16
      name RightShoulder
      direction -1.000000 0.000000 0.000000
      length 7.205867
      axis 0.0 0.0 90.0 xyz
      dof rx ry rz
   end
   begin
      id 17
      name RightArm
      direction -1.000000 0.000000 0.000000
      length 10.786708
      axis 0.0 0.0 90.0 xyz
      dof rx ry rz
   end
   begin
      id 18
      name RightForeArm
      direction -1.000000 0.000000 0.000000
      length 7.946034
      axis 0.0 0.0 90.0 xyz
      dof rz ry rx
   end
   begin
      id 19
      name RightHand
      direction 0.000000 0.000000 0.000000
      length 0.000000
      axis 0.0 0.0 90.0 xyz
      dof rx ry rz
   end
   begin
      id 20
      name RightHand_dum1
      direction 0.000000 0.000000 0.000000
      length 0.000000
      axis 0.0 0.0 90.0 xyz
   end
   begin
      id 21
      name RightHand_dum2
      direction -1.000000 0.000000 0.000000
      length 3.937000
      axis 0.0 0.0 90.0 xyz
   end
   begin
      id 22
      name RightHandThumb1
      direction 0.000000 0.000000 1.000000
      length 3.937000
      axis 0.0 0.0 90.0 xyz
      dof rx ry rz
   end
   begin
      id 23
      name LeftUpLeg
      direction 0.000000 -1.000000 0.000000
      length 17.046659
      axis 0.0 0.0 0.0 xyz
      dof rx ry rz
   end
   begin
      id 24
      name LeftLeg
      direction 0.000000 -1.000000 0.000000
      length 17.458438
      axis 0.0 0.0 0.0 xyz
      dof rx ry rz
   end
   begin
      id 25
      name LeftFoot
      direction 0.000000 -0.258819 0.965926
      length 5.099406
      axis 15.0 0.0 0.0 xyz
      dof rx ry rz
   end
   begin
      id 26
      name LeftToeBase
      direction 0.000000 0.000000 1.000000
      length 2.952750
      axis 0.0 0.0 0.0 xyz
      dof rx ry rz
   end
   begin
      id 27
      name RightUpLeg
      direction 0.000000 -1.000000 0.000000
      length 17.046659
      axis 0.0 0.0 0.0 xyz
      dof rx ry rz
   end
   begin
      id 28
      name RightLeg
      direction 0.000000 -1.000000 0.000000
      length 17.458438
      axis 0.0 0.0 0.0 xyz
      dof rx ry rz
   end
   begin
      id 29
      name RightFoot
      direction 0.000000 -0.258819 0.965926
      length 5.099406
      axis 15.0 0.0 0.0 xyz
      dof rx ry rz
   end
   begin
      id 30
      name RightToeBase
      direction 0.000000 0.000000 1.000000
      length 2.952750
      axis 0.0 0.0 0.0 xyz
      dof rx ry rz
   end
:hierarchy
   begin
      root Spine_dum LeftUpLeg_dum RightUpLeg_dum
      Spine_dum Spine
      LeftUpLeg_dum LeftUpLeg
      RightUpLeg_dum RightUpLeg
      Spine Spine_dum1 Spine_dum2 Spine_dum3
      Spine_dum1 Head
      Spine_dum2 LeftShoulder
      Spine_dum3 RightShoulder
      LeftShoulder LeftArm
      LeftArm LeftForeArm
      LeftForeArm LeftHand
      LeftHand LeftHand_dum1 LeftHand_dum2
      LeftHand_dum1 LeftHandThumb1
      RightShoulder RightArm
      RightArm RightForeArm
      RightForeArm RightHand
      RightHand RightHand_dum1 RightHand_dum2
      RightHand_dum1 RightHandThumb1
      LeftUpLeg LeftLeg
      LeftLeg LeftFoot
      LeftFoot LeftToeBase
      RightUpLeg RightLeg
      RightLeg RightFoot
      RightFoot RightToeBase
   end

# File created by Blade
# Date/Time:  Thu Jan 15 17:55:09 2015
# Frame Rate: 120.000 fps
#------------------------------------------------------
:FULLY-SPECIFIED
:DEGREES
1201
root 7.345999 35.018505 -7.352225 2.442191 4.561788 3.468183
Spine -33.139100 -16.113803 9.066096
Head 14.339177 8.705618 12.786346
LeftShoulder -40.601861 4.788186 12.345543
LeftArm -25.633668 -52.724151 -24.827338
LeftForeArm 0.000000 4.918865 6.168762
LeftHand 3.334517 -0.000000 13.210949
LeftHandThumb1 -26.253704 33.147579 0.000000
RightShoulder -12.790800 18.181621 -19.867415
RightArm -34.771378 47.994187 5.878528
RightForeArm -0.000000 -36.487920 20.699191
RightHand -6.680496 -0.000000 -10.546008
RightHandThumb1 -24.326973 -32.862282 -0.000000
LeftUpLeg 5.652299 1.603002 4.952502
LeftLeg 4.092538 -0.000000 -0.000000
LeftFoot -25.937695 3.107970 -20.676284
LeftToeBase 25.226739 -0.000000 -0.000000
RightUpLeg 9.133885 -20.237512 -12.317836
RightLeg 0.307258 -0.000000 -0.000000
RightFoot -27.278100 -28.441940 18.512045
RightToeBase 27.779349 -0.000000 -0.000000
1202
root 7.326237 35.039621 -7.457316 2.772223 4.681520 3.450320
Spine -32.608401 -16.221653 8.849335
Head 13.775272 8.768705 12.820336
LeftShoulder -40.504372 4.572596 12.420297
LeftArm -24.296547 -52.515902 -25.384711
LeftForeArm -0.000000 5.486746 6.454817
LeftHand 3.307835 -0.000000 13.053218
LeftHandThumb1 -26.253704 33.147579 0.000000
RightShoulder -12.666157 18.280019 -19.911253
RightArm -34.123092 47.650796 6.123738
RightForeArm 0.000000 -37.258803 21.200743
RightHand -6.556895 -0.000000 -9.946649
RightHandThumb1 -24.326973 -32.862282 -0.000000
LeftUpLeg 5.122641 1.575012 4.978127
LeftLeg 4.072191 -0.000000 -0.000000
LeftFoot -25.742183 3.133211 -20.705328
LeftToeBase 25.315537 -0.000000 -0.000000
RightUpLeg 8.730477 -20.372134 -12.100301
RightLeg 0.135574 -0.000000 -0.000000
RightFoot -27.062505 -28.546768 18.389486
RightToeBase 27.859804 -0.000000 -0.000000
1203
root 7.306639 35.062051 -7.560669 3.148059 4.705479 3.391642
Spine -32.128169 -16.235326 8.702553
Head 13.197252 8.761030 12.815352
LeftShoulder -40.465478 4.459544 12.426916
LeftArm -22.756868 -52.318427 -26.120944
LeftForeArm -0.000000 6.064643 6.721253
LeftHand 3.394554 -0.000000 13.083625
LeftHandThumb1 -26.253704 33.147579 0.000000
RightShoulder -12.514158 18.469040 -19.936152
RightArm -33.378838 47.123449 6.382464
RightForeArm 0.000000 -37.923212 21.661077
RightHand -6.452937 0.000000 -9.385998
RightHandThumb1 -24.326973 -32.862282 -0.000000
LeftUpLeg 4.609333 1.601672 5.030144
LeftLeg 3.974676 -0.000000 -0.000000
LeftFoot -25.529199 3.227244 -20.725533
LeftToeBase 25.288067 -0.000000 -0.000000
RightUpLeg 8.238363 -20.388573 -11.818157
RightLeg -0.021746 -0.000000 0.000000
RightFoot -26.839088 -28.606930 18.381102
RightToeBase 27.796399 -0.000000 -0.000000
1204
root 7.284573 35.083467 -7.672516 3.532555 4.753458 3.343388
Spine -31.625646 -16.277679 8.539927
Head 12.619101 8.797721 12.816662
LeftShoulder -40.336887 4.237452 12.440634
LeftArm -21.613110 -52.558551 -26.346419
LeftForeArm -0.000000 7.097324 6.959215
LeftHand 3.392589 -0.000000 13.075723
LeftHandThumb1 -26.253704 33.147579 0.000000
RightShoulder -12.416589 18.501250 -19.971950
RightArm -32.469022 46.753505 6.904392
RightForeArm -0.000000 -38.054711 22.015961
RightHand -6.117850 -0.000000 -9.636994
RightHandThumb1 -24.326973 -32.862282 -0.000000
LeftUpLeg 4.014537 1.654481 5.084853
LeftLeg 3.983251 -0.000000 -0.000000
LeftFoot -25.328756 3.252819 -20.714278
LeftToeBase 25.280151 -0.000000 -0.000000
RightUpLeg 7.744726 -20.401765 -11.533258
RightLeg -0.208964 -0.000000 0.000000
RightFoot -26.612235 -28.719026 18.305024
RightToeBase 27.805115 -0.000000 -0.000000
1205
root 7.266470 35.105249 -7.783132 3.881442 4.829921 3.307866
Spine -31.082630 -16.352468 8.352503
Head 12.030454 8.834196 12.836990
LeftShoulder -40.306958 4.104202 12.473435
LeftArm -19.940449 -52.072844 -27.286660
LeftForeArm 0.000000 7.565369 7.337406
LeftHand 3.516747 0.000000 13.129839
LeftHandThumb1 -26.253704 33.147579 0.000000
RightShoulder -12.302398 18.583566 -19.979604
RightArm -31.454821 46.034169 7.508491
RightForeArm 0.000000 -38.188059 22.369122
RightHand -5.983960 0.000000 -9.692952
RightHandThumb1 -24.326973 -32.862282 -0.000000
LeftUpLeg 3.499159 1.635511 5.117175
LeftLeg 3.898079 -0.000000 -0.000000
LeftFoot -25.118321 3.349574 -20.691344
LeftToeBase 25.348028 -0.000000 -0.000000
RightUpLeg 7.304095 -20.485487 -11.287703
RightLeg -0.392939 -0.000000 0.000000
RightFoot -26.376770 -28.764583 18.271560
RightToeBase 27.694612 -0.000000 -0.000000
1206
root 7.245315 35.126948 -7.897832 4.270346 4.906111 3.269173
Spine -30.583456 -16.433432 8.180732
Head 11.447621 8.867752 12.857550
LeftShoulder -40.197961 3.932940 12.513202
LeftArm -18.529280 -51.723941 -27.938086
LeftForeArm 0.000000 8.253368 7.706228
LeftHand 3.447984 -0.000000 13.407125
LeftHandThumb1 -26.253704 33.147579 0.000000
RightShoulder -12.140729 18.668245 -19.923120
RightArm -30.629573 45.586159 7.837590
RightForeArm -0.000000 -38.668250 22.789099
RightHand -6.011016 -0.000000 -9.507335
RightHandThumb1 -24.326973 -32.862282 -0.000000
LeftUpLeg 2.917637 1.629994 5.160869
LeftLeg 3.854886 -0.000000 -0.000000
LeftFoot -24.896825 3.393381 -20.695189
LeftToeBase 25.352257 -0.000000 -0.000000
RightUpLeg 6.813447 -20.562319 -11.018433
RightLeg -0.582053 -0.000000 0.000000
RightFoot -26.132605 -28.826351 18.200715
RightToeBase 27.680822 -0.000000 -0.000000
1207
root 7.225709 35.149093 -8.015428 4.668742 4.961069 3.216545
Spine -30.075082 -16.489516 8.037534
Head 10.828007 8.849192 12.821935
LeftShoulder -40.112460 3.773587 12.484768
LeftArm -17.079648 -51.454455 -28.562254
LeftForeArm -0.000000 8.952602 8.062207
LeftHand 3.423022 0.000000 13.459769
LeftHandThumb1 -26.253704 33.147579 0.000000
RightShoulder -11.961730 18.756893 -19.852341
RightArm -29.917369 45.390879 7.990038
RightForeArm -0.000000 -39.318573 23.143600
RightHand -5.814871 0.000000 -9.275815
RightHandThumb1 -24.326973 -32.862282 -0.000000
LeftUpLeg 2.355807 1.633729 5.202358
LeftLeg 3.743165 -0.000000 -0.000000
LeftFoot -24.679361 3.520717 -20.696561
LeftToeBase 25.412154 -0.000000 -0.000000
RightUpLeg 6.304295 -20.585467 -10.726670
RightLeg -0.784342 -0.000000 0.000000
RightFoot -25.873367 -28.914621 18.148806
RightToeBase 27.629524 -0.000000 -0.000000
